/* XPM */
static char *greenpen[] = {
"32 32 3 1 0 0",
"  c #000000",
"! c #00FF00",
"# c None",
"################################",
"#####################   ########",
"#################### !!! #######",
"#################### !!! #######",
"###################  !! ########",
"################### !   ########",
"################## !!! #########",
"################## !!  #########",
"################# !!! ##########",
"################# !!  ##########",
"################ !!! ###########",
"################  !  ###########",
"################    ############",
"################   #############",
"################  ##############",
"################ ###############",
"################################",
"################################",
"################################",
"################################",
"################################",
"################################",
"################################",
"################################",
"################################",
"################################",
"################################",
"################################",
"################################",
"################################",
"################################",
"################################",
};